<?xml version="1.0" encoding="utf-8"?>
<!-- Generator: $$$/GeneralStr/196=Adobe Illustrator 27.6.0, SVG Export Plug-In . SVG Version: 6.00 Build 0)  -->
<svg version="1.1" xmlns="http://www.w3.org/2000/svg" xmlns:xlink="http://www.w3.org/1999/xlink" x="0px" y="0px"
	 viewBox="0 0 680.3 680.3" style="enable-background:new 0 0 680.3 680.3;" xml:space="preserve">
<style type="text/css">
	.st0{fill:#E62D3D;}
	.st1{fill:#E5D247;}
	.st2{fill:#F8BEA1;}
	.st3{fill:#BAD5AC;}
	.st4{fill:#96C456;}
	.st5{fill:#F08136;}
	.st8{fill:#969696;}
	.st9{fill:#F39321;}


			.st0{fill:#E41F13;}
		.st1{fill:#DFE052;}
			.st2{fill:#F8BEA0;}
			.st3{fill:#BFDCB1;}
			.st4{fill:#96c456;}
			.st5{fill:#E76808;}
		.st8{fill:#969696;}
		.st9{fill:#F39321;}

	.st10{fill:#FFFFFF;}
	.st6{fill:none;stroke:#000000;stroke-width:0.25;stroke-miterlimit:10;}
	.st7{fill:none;stroke:#000000;stroke-width:0.5;stroke-miterlimit:10;}
</style>
<g id="Ebene_2">
</g>
<g id="Ebene_1">
	<g>
		<rect x="56.7" y="56.7" class="st0" width="566.9" height="566.9"/>
		<polygon class="st1" points="567.1,623.6 453.5,56.7 623.6,56.7 623.6,623.6 		"/>
		<polygon class="st2" points="623.7,311.5 56.8,311.5 56.8,56.8 623.6,56.7 		"/>
		<polygon class="st3" points="623.6,311.5 623.6,226.4 487.7,226.5 504.6,311.5 		"/>
		<polygon class="st4" points="623.8,226.8 623.6,56.7 453.7,56.8 487.6,226.8 		"/>
		<polygon class="st5" points="567,623.6 623.6,623.6 623.6,453.3 532.9,453.3 		"/>
		<path class="st6" d="M567,623.6"/>
		<path class="st6" d="M453.7,56.8"/>
		<rect x="56.7" y="56.7" class="st7" width="566.9" height="566.9"/>
		<line class="st7" x1="113.4" y1="56.7" x2="113.4" y2="623.6"/>
		<line class="st7" x1="170.1" y1="56.7" x2="170.1" y2="623.6"/>
		<line class="st7" x1="226.8" y1="56.7" x2="226.8" y2="623.6"/>
		<line class="st7" x1="283.5" y1="56.7" x2="283.5" y2="623.6"/>
		<line class="st7" x1="340.2" y1="56.7" x2="340.2" y2="623.6"/>
		<line class="st7" x1="396.9" y1="56.7" x2="396.9" y2="623.6"/>
		<line class="st7" x1="453.5" y1="56.7" x2="453.5" y2="623.6"/>
		<line class="st7" x1="510.2" y1="56.7" x2="510.2" y2="623.6"/>
		<line class="st7" x1="566.9" y1="56.7" x2="566.9" y2="623.6"/>
		<line class="st7" x1="623.7" y1="113.1" x2="56.8" y2="113.1"/>
		<line class="st7" x1="623.7" y1="169.8" x2="56.8" y2="169.8"/>
		<line class="st7" x1="623.7" y1="226.5" x2="56.8" y2="226.5"/>
		<line class="st7" x1="623.7" y1="283.2" x2="56.8" y2="283.2"/>
		<line class="st7" x1="623.7" y1="339.9" x2="56.8" y2="339.9"/>
		<line class="st7" x1="623.7" y1="311.5" x2="56.8" y2="311.5"/>
		<line class="st7" x1="623.7" y1="396.6" x2="56.8" y2="396.6"/>
		<line class="st7" x1="623.7" y1="453.2" x2="56.8" y2="453.2"/>
		<line class="st7" x1="623.7" y1="509.9" x2="56.8" y2="509.9"/>
		<line class="st7" x1="623.7" y1="566.6" x2="56.8" y2="566.6"/>
		<line class="st7" x1="453.7" y1="56.8" x2="567" y2="623.6"/>
	</g>
	<g>
		<path style="fill:#ccc" d="M56.4,661.9v-12h3.9c1.5,0,2.4,0.1,2.9,0.2c0.7,0.2,1.3,0.6,1.7,1.2c0.5,0.6,0.7,1.4,0.7,2.3c0,0.7-0.1,1.4-0.4,1.9
			c-0.3,0.5-0.6,0.9-1,1.2c-0.4,0.3-0.8,0.5-1.3,0.6c-0.6,0.1-1.4,0.2-2.5,0.2h-1.6v4.5H56.4z M58.8,651.9v3.4h1.3
			c1,0,1.6-0.1,1.9-0.2c0.3-0.1,0.6-0.3,0.8-0.6c0.2-0.3,0.3-0.6,0.3-0.9c0-0.4-0.1-0.8-0.4-1.1c-0.3-0.3-0.6-0.5-1-0.5
			c-0.3-0.1-0.9-0.1-1.7-0.1H58.8z"/>
		<path style="fill:#ccc" d="M67,657.4c0-0.8,0.2-1.5,0.6-2.2s0.9-1.3,1.6-1.6s1.5-0.6,2.3-0.6c1.3,0,2.4,0.4,3.2,1.3s1.3,1.9,1.3,3.2
			c0,1.3-0.4,2.4-1.3,3.3s-1.9,1.3-3.2,1.3c-0.8,0-1.6-0.2-2.3-0.5s-1.3-0.9-1.7-1.6S67,658.4,67,657.4z M69.4,657.6
			c0,0.9,0.2,1.5,0.6,2c0.4,0.5,0.9,0.7,1.5,0.7s1.1-0.2,1.5-0.7c0.4-0.5,0.6-1.1,0.6-2c0-0.9-0.2-1.5-0.6-2
			c-0.4-0.5-0.9-0.7-1.5-0.7s-1.1,0.2-1.5,0.7C69.6,656,69.4,656.7,69.4,657.6z"/>
		<path style="fill:#ccc" d="M81.8,653.2v1.8h-1.6v3.5c0,0.7,0,1.1,0,1.2c0,0.1,0.1,0.2,0.2,0.3c0.1,0.1,0.2,0.1,0.4,0.1c0.2,0,0.5-0.1,0.9-0.2
			l0.2,1.8c-0.5,0.2-1.1,0.3-1.8,0.3c-0.4,0-0.8-0.1-1.1-0.2s-0.6-0.3-0.7-0.5c-0.2-0.2-0.3-0.5-0.3-0.9c0-0.3-0.1-0.8-0.1-1.6V655
			h-1.1v-1.8h1.1v-1.7l2.3-1.3v3.1H81.8z"/>
		<path style="fill:#ccc" d="M88.5,659.1l2.3,0.4c-0.3,0.8-0.8,1.5-1.4,1.9c-0.6,0.4-1.4,0.7-2.4,0.7c-1.5,0-2.6-0.5-3.4-1.5c-0.6-0.8-0.9-1.8-0.9-3
			c0-1.4,0.4-2.6,1.1-3.4c0.8-0.8,1.7-1.2,2.9-1.2c1.3,0,2.3,0.4,3.1,1.3c0.7,0.9,1.1,2.2,1.1,3.9h-5.8c0,0.7,0.2,1.2,0.6,1.6
			c0.4,0.4,0.8,0.6,1.3,0.6c0.4,0,0.7-0.1,0.9-0.3S88.3,659.6,88.5,659.1z M88.6,656.8c0-0.7-0.2-1.2-0.5-1.5
			c-0.3-0.3-0.7-0.5-1.2-0.5c-0.5,0-0.9,0.2-1.2,0.5s-0.5,0.9-0.5,1.5H88.6z"/>
		<path style="fill:#ccc" d="M100.7,661.9h-2.3v-4.4c0-0.9,0-1.5-0.1-1.8c-0.1-0.3-0.3-0.5-0.5-0.6c-0.2-0.2-0.5-0.2-0.8-0.2c-0.4,0-0.8,0.1-1.1,0.3
			c-0.3,0.2-0.5,0.5-0.7,0.9c-0.1,0.4-0.2,1-0.2,2v3.9h-2.3v-8.7h2.1v1.3c0.8-1,1.7-1.5,2.9-1.5c0.5,0,1,0.1,1.4,0.3
			c0.4,0.2,0.7,0.4,1,0.7c0.2,0.3,0.4,0.6,0.5,1c0.1,0.4,0.1,0.9,0.1,1.6V661.9z"/>
		<path style="fill:#ccc" d="M102.1,661.9v-1.8l3.3-3.7c0.5-0.6,0.9-1,1.2-1.3c-0.3,0-0.6,0-1.1,0l-3.1,0v-1.9h7.2v1.6l-3.3,3.8l-1.2,1.3
			c0.6,0,1-0.1,1.2-0.1h3.6v2H102.1z"/>
		<path style="fill:#ccc" d="M111.4,652v-2.1h2.3v2.1H111.4z M111.4,661.9v-8.7h2.3v8.7H111.4z"/>
		<path style="fill:#ccc" d="M117.8,655.9l-2.1-0.4c0.2-0.8,0.6-1.5,1.2-1.9s1.4-0.6,2.6-0.6c1,0,1.8,0.1,2.3,0.4c0.5,0.2,0.9,0.6,1.1,0.9
			c0.2,0.4,0.3,1.1,0.3,2.1l0,2.7c0,0.8,0,1.3,0.1,1.7c0.1,0.4,0.2,0.8,0.4,1.2h-2.3c-0.1-0.2-0.1-0.4-0.2-0.7
			c0-0.1-0.1-0.2-0.1-0.3c-0.4,0.4-0.8,0.7-1.3,0.9c-0.4,0.2-0.9,0.3-1.4,0.3c-0.9,0-1.6-0.2-2.1-0.7c-0.5-0.5-0.8-1.1-0.8-1.8
			c0-0.5,0.1-0.9,0.4-1.3c0.2-0.4,0.6-0.7,1-0.9s1-0.4,1.8-0.5c1.1-0.2,1.8-0.4,2.2-0.6V656c0-0.4-0.1-0.8-0.3-0.9s-0.6-0.3-1.2-0.3
			c-0.4,0-0.7,0.1-1,0.2C118.1,655.2,118,655.5,117.8,655.9z M120.9,657.7c-0.3,0.1-0.8,0.2-1.4,0.4c-0.6,0.1-1.1,0.3-1.3,0.4
			c-0.3,0.2-0.5,0.5-0.5,0.8c0,0.3,0.1,0.6,0.4,0.8s0.5,0.4,0.9,0.4c0.4,0,0.8-0.1,1.2-0.4c0.3-0.2,0.5-0.5,0.5-0.8
			c0.1-0.2,0.1-0.6,0.1-1.1V657.7z"/>
		<path style="fill:#ccc" d="M125.4,661.9v-12h2.3v12H125.4z"/>
	</g>
	<g>
		<path  style="fill:#ccc" d="M26.5,623.2l-0.2-2.4c0.8-0.1,1.4-0.4,1.7-0.9s0.6-1,0.6-1.8c0-0.8-0.2-1.4-0.5-1.8s-0.7-0.6-1.2-0.6
			c-0.3,0-0.5,0.1-0.7,0.3c-0.2,0.2-0.4,0.5-0.5,0.9c-0.1,0.3-0.3,0.9-0.5,1.9c-0.3,1.3-0.7,2.2-1.2,2.7c-0.7,0.7-1.5,1.1-2.4,1.1
			c-0.6,0-1.2-0.2-1.7-0.5s-0.9-0.8-1.2-1.5c-0.3-0.7-0.4-1.4-0.4-2.4c0-1.5,0.3-2.6,1-3.4c0.7-0.8,1.5-1.2,2.6-1.2l0.1,2.4
			c-0.6,0.1-1.1,0.3-1.3,0.7c-0.3,0.3-0.4,0.9-0.4,1.5c0,0.7,0.1,1.3,0.4,1.7c0.2,0.3,0.4,0.4,0.7,0.4c0.3,0,0.5-0.1,0.7-0.4
			c0.3-0.3,0.5-1.1,0.8-2.2c0.3-1.2,0.6-2.1,0.9-2.6s0.7-1,1.2-1.3c0.5-0.3,1.2-0.5,1.9-0.5c0.7,0,1.3,0.2,1.9,0.6s1,0.9,1.3,1.6
			c0.3,0.7,0.4,1.6,0.4,2.6c0,1.5-0.4,2.7-1.1,3.5C28.9,622.6,27.8,623.1,26.5,623.2z"/>
		<path style="fill:#ccc" d="M20.5,611.4h-2.1v-2.3h2.1V611.4z M30.4,611.4h-8.7v-2.3h8.7V611.4z"/>
		<path style="fill:#ccc" d="M24.3,599.2l0.4,2.3c-0.5,0.1-0.8,0.3-1,0.5c-0.2,0.3-0.3,0.6-0.3,1.1c0,0.6,0.2,1,0.6,1.4s1.1,0.5,2,0.5
			c1,0,1.8-0.2,2.2-0.5c0.4-0.3,0.6-0.8,0.6-1.4c0-0.4-0.1-0.8-0.4-1.1c-0.2-0.3-0.7-0.5-1.3-0.6l0.4-2.3c1,0.2,1.8,0.7,2.4,1.4
			c0.5,0.7,0.8,1.6,0.8,2.7c0,1.3-0.4,2.3-1.2,3c-0.8,0.8-1.9,1.1-3.3,1.1c-1.4,0-2.6-0.4-3.4-1.1c-0.8-0.8-1.2-1.8-1.2-3.1
			c0-1.1,0.2-1.9,0.7-2.5C22.6,599.9,23.3,599.4,24.3,599.2z"/>
		<path style="fill:#ccc" d="M18.4,595.1h4.4c-0.9-0.7-1.3-1.6-1.3-2.7c0-0.5,0.1-1,0.3-1.4c0.2-0.4,0.4-0.7,0.8-1s0.6-0.4,1-0.4
			c0.4-0.1,0.9-0.1,1.7-0.1h5.1v2.3h-4.6c-0.9,0-1.5,0-1.7,0.1c-0.2,0.1-0.4,0.2-0.6,0.5s-0.2,0.5-0.2,0.8c0,0.4,0.1,0.7,0.3,1
			s0.5,0.5,0.8,0.7c0.4,0.1,0.9,0.2,1.7,0.2h4.4v2.3h-12V595.1z"/>
		<path style="fill:#ccc" d="M27.6,582.1l0.4-2.3c0.8,0.3,1.5,0.8,1.9,1.4c0.4,0.6,0.7,1.4,0.7,2.4c0,1.5-0.5,2.6-1.5,3.4c-0.8,0.6-1.8,0.9-3,0.9
			c-1.4,0-2.6-0.4-3.4-1.1c-0.8-0.8-1.2-1.7-1.2-2.9c0-1.3,0.4-2.3,1.3-3.1s2.2-1.1,3.9-1.1v5.8c0.7,0,1.2-0.2,1.6-0.6
			c0.4-0.4,0.6-0.8,0.6-1.3c0-0.4-0.1-0.7-0.3-0.9S28.1,582.2,27.6,582.1z M25.3,582c-0.7,0-1.2,0.2-1.5,0.5
			c-0.3,0.3-0.5,0.7-0.5,1.2c0,0.5,0.2,0.9,0.5,1.2c0.4,0.3,0.9,0.5,1.5,0.5V582z"/>
		<path style="fill:#ccc" d="M30.4,575.6v2.3h-8.7v-2.1h1.2c-0.6-0.4-1-0.7-1.2-1s-0.3-0.6-0.3-1c0-0.5,0.1-1,0.4-1.5l2,0.7c-0.3,0.4-0.4,0.7-0.4,1.1
			c0,0.3,0.1,0.6,0.3,0.8s0.5,0.4,1,0.5c0.5,0.1,1.4,0.2,2.9,0.2H30.4z"/>
		<path style="fill:#ccc" d="M18.4,569h4.4c-0.9-0.7-1.3-1.6-1.3-2.7c0-0.5,0.1-1,0.3-1.4c0.2-0.4,0.4-0.7,0.8-1s0.6-0.4,1-0.4
			c0.4-0.1,0.9-0.1,1.7-0.1h5.1v2.3h-4.6c-0.9,0-1.5,0-1.7,0.1c-0.2,0.1-0.4,0.2-0.6,0.5s-0.2,0.5-0.2,0.8c0,0.4,0.1,0.7,0.3,1
			s0.5,0.5,0.8,0.7s0.9,0.2,1.7,0.2h4.4v2.3h-12V569z"/>
		<path style="fill:#ccc" d="M27.6,556l0.4-2.3c0.8,0.3,1.5,0.8,1.9,1.4c0.4,0.6,0.7,1.4,0.7,2.4c0,1.5-0.5,2.6-1.5,3.4c-0.8,0.6-1.8,0.9-3,0.9
			c-1.4,0-2.6-0.4-3.4-1.1c-0.8-0.8-1.2-1.7-1.2-2.9c0-1.3,0.4-2.3,1.3-3.1s2.2-1.1,3.9-1.1v5.8c0.7,0,1.2-0.2,1.6-0.6
			c0.4-0.4,0.6-0.8,0.6-1.3c0-0.4-0.1-0.7-0.3-0.9S28.1,556.1,27.6,556z M25.3,555.8c-0.7,0-1.2,0.2-1.5,0.5
			c-0.3,0.3-0.5,0.7-0.5,1.2c0,0.5,0.2,0.9,0.5,1.2c0.4,0.3,0.9,0.5,1.5,0.5V555.8z"/>
		<path style="fill:#ccc" d="M20.5,551.7h-2.1v-2.3h2.1V551.7z M30.4,551.7h-8.7v-2.3h8.7V551.7z"/>
		<path style="fill:#ccc" d="M21.7,543h1.8v1.6H27c0.7,0,1.1,0,1.2,0s0.2-0.1,0.3-0.2s0.1-0.2,0.1-0.4c0-0.2-0.1-0.5-0.2-0.9l1.8-0.2
			c0.2,0.5,0.3,1.1,0.3,1.8c0,0.4-0.1,0.8-0.2,1.1c-0.1,0.3-0.3,0.6-0.5,0.7c-0.2,0.2-0.5,0.3-0.9,0.3c-0.3,0-0.8,0.1-1.6,0.1h-3.8
			v1.1h-1.8v-1.1H20l-1.3-2.3h3.1V543z"/>
	</g>
	<g>
		<path class="st8" d="M45,630c1,0,1.7,0.3,2.3,1c0.7,0.8,1,2.2,1,4.1c0,1.9-0.3,3.3-1,4.1c-0.5,0.7-1.3,1-2.3,1
			c-1,0-1.8-0.4-2.4-1.1c-0.6-0.8-0.9-2.1-0.9-4c0-1.9,0.3-3.2,1-4.1C43.3,630.3,44,630,45,630z M45,631.6c-0.2,0-0.4,0.1-0.6,0.2
			c-0.2,0.1-0.3,0.4-0.4,0.8c-0.1,0.5-0.2,1.3-0.2,2.5s0.1,2,0.2,2.4c0.1,0.4,0.3,0.7,0.4,0.9s0.4,0.2,0.6,0.2s0.4-0.1,0.6-0.2
			c0.2-0.1,0.3-0.4,0.4-0.8c0.1-0.5,0.2-1.3,0.2-2.5s-0.1-2-0.2-2.4c-0.1-0.4-0.3-0.7-0.4-0.9C45.4,631.6,45.2,631.6,45,631.6z"/>
	</g>
	<g>
		<path class="st8" d="M46.7,570.9h-1.9v-7.2c-0.7,0.7-1.5,1.1-2.5,1.5v-1.7c0.5-0.2,1-0.5,1.6-0.9c0.6-0.5,1-1,1.2-1.6h1.6V570.9z"
			/>
	</g>
	<g>
		<path class="st8" d="M48.2,512.4v1.8h-6.7c0.1-0.7,0.3-1.3,0.7-1.9c0.4-0.6,1.1-1.4,2.2-2.4c0.9-0.8,1.4-1.4,1.6-1.6
			c0.3-0.4,0.4-0.8,0.4-1.2c0-0.4-0.1-0.8-0.3-1c-0.2-0.2-0.5-0.3-1-0.3c-0.4,0-0.7,0.1-1,0.4s-0.4,0.6-0.4,1.2l-1.9-0.2
			c0.1-1.1,0.5-1.8,1.1-2.3s1.4-0.7,2.3-0.7c1,0,1.8,0.3,2.3,0.8s0.8,1.2,0.8,2c0,0.5-0.1,0.9-0.2,1.3c-0.2,0.4-0.4,0.8-0.8,1.3
			c-0.2,0.3-0.7,0.7-1.3,1.3s-1,0.9-1.2,1.1s-0.3,0.4-0.4,0.5H48.2z"/>
	</g>
	<g>
		<path class="st8" d="M41.7,454.8l1.9-0.2c0.1,0.5,0.2,0.8,0.5,1.1s0.6,0.4,0.9,0.4c0.4,0,0.7-0.2,1-0.5s0.4-0.7,0.4-1.2
			c0-0.5-0.1-0.9-0.4-1.1s-0.6-0.4-1-0.4c-0.2,0-0.5,0-0.9,0.1l0.2-1.6c0.5,0,0.9-0.1,1.2-0.3c0.3-0.2,0.4-0.6,0.4-1
			c0-0.3-0.1-0.6-0.3-0.8s-0.5-0.3-0.8-0.3c-0.3,0-0.6,0.1-0.8,0.3s-0.4,0.6-0.4,1l-1.8-0.3c0.1-0.6,0.3-1.1,0.6-1.5
			c0.2-0.4,0.6-0.6,1-0.9c0.4-0.2,0.9-0.3,1.5-0.3c0.9,0,1.7,0.3,2.3,0.9c0.5,0.5,0.7,1,0.7,1.7c0,0.9-0.5,1.6-1.4,2.1
			c0.6,0.1,1,0.4,1.4,0.8s0.5,0.9,0.5,1.6c0,0.9-0.3,1.6-1,2.2s-1.4,0.9-2.4,0.9c-0.9,0-1.7-0.3-2.3-0.8
			C42.1,456.4,41.8,455.7,41.7,454.8z"/>
	</g>
	<g>
		<path class="st8" d="M45.5,400.8v-2h-4.1v-1.7l4.3-6.4h1.6v6.4h1.2v1.7h-1.2v2H45.5z M45.5,397.1v-3.4l-2.3,3.4H45.5z"/>
	</g>
	<g>
		<path class="st8" d="M41.8,341.5l1.9-0.2c0.1,0.4,0.2,0.8,0.5,1c0.3,0.3,0.6,0.4,0.9,0.4c0.4,0,0.7-0.2,1-0.5
			c0.3-0.3,0.4-0.8,0.4-1.5c0-0.6-0.1-1.1-0.4-1.4c-0.3-0.3-0.6-0.5-1.1-0.5c-0.6,0-1,0.2-1.5,0.7l-1.6-0.2l1-5.2h5.1v1.8h-3.6
			l-0.3,1.7c0.4-0.2,0.9-0.3,1.3-0.3c0.9,0,1.6,0.3,2.2,0.9s0.9,1.4,0.9,2.4c0,0.8-0.2,1.6-0.7,2.2c-0.7,0.9-1.6,1.3-2.7,1.3
			c-0.9,0-1.7-0.2-2.3-0.7S41.9,342.4,41.8,341.5z"/>
	</g>
	<g>
		<path class="st8" d="M48.3,279.8l-1.9,0.2c0-0.4-0.2-0.7-0.4-0.8s-0.4-0.3-0.7-0.3c-0.4,0-0.7,0.2-1,0.5s-0.5,1.1-0.5,2.3
			c0.5-0.6,1.1-0.8,1.8-0.8c0.8,0,1.5,0.3,2.1,0.9s0.9,1.4,0.9,2.4c0,1-0.3,1.8-0.9,2.5s-1.4,0.9-2.3,0.9c-1,0-1.8-0.4-2.5-1.2
			c-0.7-0.8-1-2.1-1-3.9c0-1.8,0.3-3.2,1-4s1.6-1.2,2.6-1.2c0.8,0,1.4,0.2,1.9,0.6C47.8,278.4,48.1,279,48.3,279.8z M43.9,284
			c0,0.6,0.1,1.1,0.4,1.4c0.3,0.3,0.6,0.5,1,0.5c0.4,0,0.7-0.1,0.9-0.4s0.4-0.7,0.4-1.4c0-0.7-0.1-1.1-0.4-1.4
			c-0.3-0.3-0.6-0.5-1-0.5c-0.4,0-0.7,0.1-0.9,0.4C44,283,43.9,283.5,43.9,284z"/>
	</g>
	<g>
		<path class="st8" d="M41.7,222.6v-1.8h6.6v1.4c-0.5,0.5-1.1,1.3-1.7,2.3s-1,2.1-1.3,3.2c-0.3,1.1-0.4,2.1-0.4,3h-1.9
			c0-1.4,0.3-2.8,0.9-4.2s1.3-2.7,2.2-3.9H41.7z"/>
	</g>
	<g>
		<path class="st8" d="M43.4,168.6c-0.5-0.2-0.9-0.5-1.1-0.9c-0.2-0.4-0.3-0.8-0.3-1.2c0-0.7,0.3-1.4,0.8-1.9S44,164,45,164
			c1,0,1.7,0.2,2.2,0.7s0.8,1.1,0.8,1.9c0,0.5-0.1,0.9-0.4,1.2c-0.2,0.4-0.6,0.6-1,0.8c0.6,0.2,1,0.5,1.3,1s0.4,0.9,0.4,1.5
			c0,0.9-0.3,1.7-0.9,2.3s-1.4,0.9-2.4,0.9c-0.9,0-1.7-0.2-2.3-0.7c-0.7-0.6-1.1-1.3-1.1-2.3c0-0.5,0.1-1,0.4-1.5
			C42.4,169.2,42.8,168.9,43.4,168.6z M43.6,171c0,0.5,0.1,0.9,0.4,1.2s0.6,0.4,1,0.4c0.4,0,0.7-0.1,1-0.4c0.3-0.3,0.4-0.7,0.4-1.2
			c0-0.5-0.1-0.8-0.4-1.1c-0.3-0.3-0.6-0.4-1-0.4c-0.5,0-0.8,0.2-1,0.5S43.6,170.6,43.6,171z M43.8,166.7c0,0.4,0.1,0.7,0.3,0.9
			s0.5,0.3,0.9,0.3c0.4,0,0.7-0.1,0.9-0.3c0.2-0.2,0.3-0.5,0.3-0.9c0-0.4-0.1-0.6-0.3-0.9c-0.2-0.2-0.5-0.3-0.9-0.3
			c-0.4,0-0.7,0.1-0.9,0.3S43.8,166.3,43.8,166.7z"/>
	</g>
	<g>
		<path class="st8" d="M41.8,115l1.9-0.2c0,0.4,0.2,0.7,0.4,0.8s0.4,0.3,0.8,0.3c0.4,0,0.7-0.2,1-0.5s0.5-1.1,0.5-2.3
			c-0.5,0.6-1.1,0.8-1.8,0.8c-0.8,0-1.5-0.3-2-0.9c-0.6-0.6-0.9-1.4-0.9-2.4c0-1,0.3-1.8,0.9-2.5c0.6-0.6,1.4-0.9,2.3-0.9
			c1,0,1.9,0.4,2.5,1.2c0.7,0.8,1,2.1,1,3.9c0,1.8-0.3,3.2-1,4s-1.6,1.2-2.7,1.2c-0.8,0-1.4-0.2-1.9-0.6
			C42.2,116.5,41.9,115.8,41.8,115z M46.1,110.8c0-0.6-0.1-1.1-0.4-1.4s-0.6-0.5-1-0.5c-0.4,0-0.7,0.1-0.9,0.4
			c-0.2,0.3-0.4,0.7-0.4,1.4c0,0.6,0.1,1.1,0.4,1.4c0.3,0.3,0.6,0.5,1,0.5c0.4,0,0.7-0.1,0.9-0.4S46.1,111.4,46.1,110.8z"/>
	</g>
	<g>
		<path class="st8" d="M38.9,60.6H37v-7.2c-0.7,0.7-1.5,1.1-2.5,1.5v-1.7c0.5-0.2,1-0.5,1.6-0.9c0.6-0.5,1-1,1.2-1.6h1.6V60.6z"/>
		<path class="st8" d="M45,50.6c1,0,1.7,0.3,2.3,1c0.7,0.8,1,2.2,1,4.1c0,1.9-0.3,3.3-1,4.1c-0.5,0.7-1.3,1-2.3,1
			c-1,0-1.8-0.4-2.4-1.1c-0.6-0.8-0.9-2.1-0.9-4c0-1.9,0.3-3.2,1-4.1C43.3,50.9,44,50.6,45,50.6z M45,52.2c-0.2,0-0.4,0.1-0.6,0.2
			c-0.2,0.1-0.3,0.4-0.4,0.8c-0.1,0.5-0.2,1.3-0.2,2.5s0.1,2,0.2,2.4c0.1,0.4,0.3,0.7,0.4,0.9s0.4,0.2,0.6,0.2s0.4-0.1,0.6-0.2
			c0.2-0.1,0.3-0.4,0.4-0.8c0.1-0.5,0.2-1.3,0.2-2.5s-0.1-2-0.2-2.4c-0.1-0.4-0.3-0.7-0.4-0.9C45.4,52.2,45.2,52.2,45,52.2z"/>
	</g>
	<g>
		<path class="st8" d="M114.7,640h-1.9v-7.2c-0.7,0.7-1.5,1.1-2.5,1.5v-1.7c0.5-0.2,1-0.5,1.6-0.9c0.6-0.5,1-1,1.2-1.6h1.6V640z"/>
	</g>
	<g>
		<path class="st8" d="M173,638.3v1.8h-6.7c0.1-0.7,0.3-1.3,0.7-1.9c0.4-0.6,1.1-1.4,2.2-2.4c0.9-0.8,1.4-1.4,1.6-1.6
			c0.3-0.4,0.4-0.8,0.4-1.2c0-0.4-0.1-0.8-0.3-1c-0.2-0.2-0.5-0.3-1-0.3c-0.4,0-0.7,0.1-1,0.4s-0.4,0.6-0.4,1.2l-1.9-0.2
			c0.1-1.1,0.5-1.8,1.1-2.3s1.4-0.7,2.3-0.7c1,0,1.8,0.3,2.3,0.8s0.8,1.2,0.8,2c0,0.5-0.1,0.9-0.2,1.3c-0.2,0.4-0.4,0.8-0.8,1.3
			c-0.2,0.3-0.7,0.7-1.3,1.3s-1,0.9-1.2,1.1s-0.3,0.4-0.4,0.5H173z"/>
	</g>
	<g>
		<path class="st8" d="M223.1,637.4l1.9-0.2c0.1,0.5,0.2,0.8,0.5,1.1s0.6,0.4,0.9,0.4c0.4,0,0.7-0.2,1-0.5s0.4-0.7,0.4-1.2
			c0-0.5-0.1-0.9-0.4-1.1s-0.6-0.4-1-0.4c-0.2,0-0.5,0-0.9,0.1l0.2-1.6c0.5,0,0.9-0.1,1.2-0.3c0.3-0.2,0.4-0.6,0.4-1
			c0-0.3-0.1-0.6-0.3-0.8s-0.5-0.3-0.8-0.3c-0.3,0-0.6,0.1-0.8,0.3s-0.4,0.6-0.4,1l-1.8-0.3c0.1-0.6,0.3-1.1,0.6-1.5
			c0.2-0.4,0.6-0.6,1-0.9c0.4-0.2,0.9-0.3,1.5-0.3c0.9,0,1.7,0.3,2.3,0.9c0.5,0.5,0.7,1,0.7,1.7c0,0.9-0.5,1.6-1.4,2.1
			c0.6,0.1,1,0.4,1.4,0.8s0.5,0.9,0.5,1.6c0,0.9-0.3,1.6-1,2.2s-1.4,0.9-2.4,0.9c-0.9,0-1.7-0.3-2.3-0.8
			C223.5,638.9,223.2,638.2,223.1,637.4z"/>
	</g>
	<g>
		<path class="st8" d="M283.6,640v-2h-4.1v-1.7l4.3-6.4h1.6v6.4h1.2v1.7h-1.2v2H283.6z M283.6,636.3v-3.4l-2.3,3.4H283.6z"/>
	</g>
	<g>
		<path class="st8" d="M336.6,637.5l1.9-0.2c0.1,0.4,0.2,0.8,0.5,1c0.3,0.3,0.6,0.4,0.9,0.4c0.4,0,0.7-0.2,1-0.5
			c0.3-0.3,0.4-0.8,0.4-1.5c0-0.6-0.1-1.1-0.4-1.4c-0.3-0.3-0.6-0.5-1.1-0.5c-0.6,0-1,0.2-1.5,0.7l-1.6-0.2l1-5.2h5.1v1.8h-3.6
			l-0.3,1.7c0.4-0.2,0.9-0.3,1.3-0.3c0.9,0,1.6,0.3,2.2,0.9c0.6,0.6,0.9,1.4,0.9,2.4c0,0.8-0.2,1.6-0.7,2.2
			c-0.7,0.9-1.6,1.3-2.7,1.3c-0.9,0-1.7-0.2-2.3-0.7S336.7,638.3,336.6,637.5z"/>
	</g>
	<g>
		<path class="st8" d="M399.8,632.5l-1.9,0.2c0-0.4-0.2-0.7-0.4-0.8s-0.4-0.3-0.7-0.3c-0.4,0-0.7,0.2-1,0.5s-0.5,1.1-0.5,2.3
			c0.5-0.6,1.1-0.8,1.8-0.8c0.8,0,1.5,0.3,2.1,0.9c0.6,0.6,0.9,1.4,0.9,2.4c0,1-0.3,1.8-0.9,2.5s-1.4,0.9-2.3,0.9
			c-1,0-1.8-0.4-2.5-1.2c-0.7-0.8-1-2.1-1-3.9c0-1.8,0.3-3.2,1-4c0.7-0.8,1.6-1.2,2.6-1.2c0.8,0,1.4,0.2,1.9,0.6
			C399.3,631,399.6,631.7,399.8,632.5z M395.4,636.7c0,0.6,0.1,1.1,0.4,1.4c0.3,0.3,0.6,0.5,1,0.5c0.4,0,0.7-0.1,0.9-0.4
			c0.2-0.3,0.4-0.7,0.4-1.4c0-0.7-0.1-1.1-0.4-1.4c-0.3-0.3-0.6-0.5-1-0.5c-0.4,0-0.7,0.1-0.9,0.4
			C395.5,635.7,395.4,636.1,395.4,636.7z"/>
	</g>
	<g>
		<path class="st8" d="M449.9,631.9v-1.8h6.6v1.4c-0.5,0.5-1.1,1.3-1.7,2.3s-1,2.1-1.3,3.2c-0.3,1.1-0.4,2.1-0.4,3h-1.9
			c0-1.4,0.3-2.8,0.9-4.2s1.3-2.7,2.2-3.9H449.9z"/>
	</g>
	<g>
		<path class="st8" d="M508.3,634.6c-0.5-0.2-0.9-0.5-1.1-0.9c-0.2-0.4-0.3-0.8-0.3-1.2c0-0.7,0.3-1.4,0.8-1.9
			c0.5-0.5,1.3-0.7,2.2-0.7c1,0,1.7,0.2,2.2,0.7s0.8,1.1,0.8,1.9c0,0.5-0.1,0.9-0.4,1.2c-0.2,0.4-0.6,0.6-1,0.8c0.6,0.2,1,0.5,1.3,1
			c0.3,0.4,0.4,0.9,0.4,1.5c0,0.9-0.3,1.7-0.9,2.3c-0.6,0.6-1.4,0.9-2.4,0.9c-0.9,0-1.7-0.2-2.3-0.7c-0.7-0.6-1.1-1.3-1.1-2.3
			c0-0.5,0.1-1,0.4-1.5C507.3,635.2,507.7,634.9,508.3,634.6z M508.5,637c0,0.5,0.1,0.9,0.4,1.2c0.3,0.3,0.6,0.4,1,0.4
			c0.4,0,0.7-0.1,1-0.4c0.3-0.3,0.4-0.7,0.4-1.2c0-0.5-0.1-0.8-0.4-1.1c-0.3-0.3-0.6-0.4-1-0.4c-0.5,0-0.8,0.2-1,0.5
			C508.6,636.3,508.5,636.6,508.5,637z M508.7,632.7c0,0.4,0.1,0.7,0.3,0.9c0.2,0.2,0.5,0.3,0.9,0.3c0.4,0,0.7-0.1,0.9-0.3
			c0.2-0.2,0.3-0.5,0.3-0.9c0-0.4-0.1-0.6-0.3-0.9c-0.2-0.2-0.5-0.3-0.9-0.3c-0.4,0-0.7,0.1-0.9,0.3S508.7,632.3,508.7,632.7z"/>
	</g>
	<g>
		<path class="st8" d="M563.4,637.7l1.9-0.2c0,0.4,0.2,0.7,0.4,0.8s0.4,0.3,0.8,0.3c0.4,0,0.7-0.2,1-0.5c0.3-0.4,0.5-1.1,0.5-2.3
			c-0.5,0.6-1.1,0.8-1.8,0.8c-0.8,0-1.5-0.3-2-0.9c-0.6-0.6-0.9-1.4-0.9-2.4c0-1,0.3-1.8,0.9-2.5c0.6-0.6,1.4-0.9,2.3-0.9
			c1,0,1.8,0.4,2.5,1.2c0.7,0.8,1,2.1,1,3.9c0,1.8-0.3,3.2-1,4c-0.7,0.8-1.6,1.2-2.7,1.2c-0.8,0-1.4-0.2-1.9-0.6
			C563.8,639.2,563.5,638.5,563.4,637.7z M567.7,633.5c0-0.6-0.1-1.1-0.4-1.4c-0.3-0.3-0.6-0.5-1-0.5c-0.4,0-0.7,0.1-0.9,0.4
			c-0.2,0.3-0.4,0.7-0.4,1.4c0,0.6,0.1,1.1,0.4,1.4c0.3,0.3,0.6,0.5,1,0.5c0.4,0,0.7-0.1,0.9-0.4S567.7,634.1,567.7,633.5z"/>
	</g>
	<g>
		<path class="st8" d="M620.3,640h-1.9v-7.2c-0.7,0.7-1.5,1.1-2.5,1.5v-1.7c0.5-0.2,1-0.5,1.6-0.9c0.6-0.5,1-1,1.2-1.6h1.6V640z"/>
		<path class="st8" d="M626.4,630c1,0,1.7,0.3,2.3,1c0.7,0.8,1,2.2,1,4.1c0,1.9-0.3,3.3-1,4.1c-0.5,0.7-1.3,1-2.3,1
			c-1,0-1.8-0.4-2.4-1.1c-0.6-0.8-0.9-2.1-0.9-4c0-1.9,0.3-3.2,1-4.1C624.7,630.3,625.4,630,626.4,630z M626.4,631.6
			c-0.2,0-0.4,0.1-0.6,0.2c-0.2,0.1-0.3,0.4-0.4,0.8c-0.1,0.5-0.2,1.3-0.2,2.5s0.1,2,0.2,2.4c0.1,0.4,0.3,0.7,0.4,0.9
			c0.2,0.1,0.4,0.2,0.6,0.2s0.4-0.1,0.6-0.2c0.2-0.1,0.3-0.4,0.4-0.8c0.1-0.5,0.2-1.3,0.2-2.5s-0.1-2-0.2-2.4
			c-0.1-0.4-0.3-0.7-0.4-0.9C626.8,631.6,626.6,631.6,626.4,631.6z"/>
	</g>
	<g>
		<path style="fill:#ccc" d="M434.6,40.7l1-0.1c0.1,0.3,0.2,0.6,0.4,0.7c0.2,0.2,0.4,0.2,0.7,0.2c0.3,0,0.6-0.1,0.8-0.2c0.2-0.1,0.3-0.3,0.3-0.5
			c0-0.1,0-0.2-0.1-0.3c-0.1-0.1-0.2-0.2-0.4-0.2c-0.1,0-0.4-0.1-0.8-0.2c-0.6-0.1-0.9-0.3-1.2-0.5c-0.3-0.3-0.5-0.6-0.5-1
			c0-0.3,0.1-0.5,0.2-0.7c0.1-0.2,0.4-0.4,0.6-0.5c0.3-0.1,0.6-0.2,1-0.2c0.6,0,1.1,0.1,1.4,0.4c0.3,0.3,0.5,0.7,0.5,1.1l-1,0
			c0-0.3-0.1-0.5-0.3-0.6c-0.1-0.1-0.4-0.2-0.7-0.2c-0.3,0-0.5,0.1-0.7,0.2c-0.1,0.1-0.2,0.2-0.2,0.3c0,0.1,0.1,0.2,0.2,0.3
			c0.1,0.1,0.4,0.2,0.9,0.3c0.5,0.1,0.9,0.2,1.1,0.4c0.2,0.1,0.4,0.3,0.6,0.5c0.1,0.2,0.2,0.5,0.2,0.8c0,0.3-0.1,0.6-0.2,0.8
			s-0.4,0.4-0.7,0.6c-0.3,0.1-0.7,0.2-1.1,0.2c-0.6,0-1.1-0.1-1.5-0.4C434.9,41.7,434.7,41.3,434.6,40.7z"/>
		<path style="fill:#ccc" d="M440.6,37.2v1.9c0.3-0.4,0.7-0.6,1.1-0.6c0.2,0,0.4,0,0.6,0.1c0.2,0.1,0.3,0.2,0.4,0.3c0.1,0.1,0.2,0.3,0.2,0.4
			c0,0.2,0.1,0.4,0.1,0.7v2.2h-1v-2c0-0.4,0-0.6-0.1-0.7s-0.1-0.2-0.2-0.2s-0.2-0.1-0.4-0.1c-0.2,0-0.3,0-0.4,0.1
			c-0.1,0.1-0.2,0.2-0.3,0.4c-0.1,0.2-0.1,0.4-0.1,0.7v1.9h-1v-5.1H440.6z"/>
		<path style="fill:#ccc" d="M443.7,40.4c0-0.3,0.1-0.6,0.2-0.9c0.2-0.3,0.4-0.5,0.7-0.7c0.3-0.2,0.6-0.2,1-0.2c0.6,0,1,0.2,1.4,0.5
			c0.4,0.4,0.5,0.8,0.5,1.4c0,0.6-0.2,1-0.5,1.4c-0.4,0.4-0.8,0.6-1.4,0.6c-0.3,0-0.7-0.1-1-0.2s-0.5-0.4-0.7-0.7
			C443.8,41.2,443.7,40.9,443.7,40.4z M444.8,40.5c0,0.4,0.1,0.6,0.3,0.8c0.2,0.2,0.4,0.3,0.6,0.3s0.5-0.1,0.6-0.3
			c0.2-0.2,0.3-0.5,0.3-0.8c0-0.4-0.1-0.6-0.3-0.8c-0.2-0.2-0.4-0.3-0.6-0.3s-0.5,0.1-0.6,0.3C444.8,39.9,444.8,40.1,444.8,40.5z"/>
		<path style="fill:#ccc" d="M449.3,42.3h-1v-3.7h0.9v0.5c0.2-0.2,0.3-0.4,0.4-0.5c0.1-0.1,0.3-0.1,0.4-0.1c0.2,0,0.4,0.1,0.6,0.2l-0.3,0.9
			c-0.2-0.1-0.3-0.2-0.5-0.2c-0.1,0-0.3,0-0.3,0.1c-0.1,0.1-0.2,0.2-0.2,0.4s-0.1,0.6-0.1,1.2V42.3z"/>
		<path style="fill:#ccc" d="M452.8,38.7v0.8h-0.7v1.5c0,0.3,0,0.5,0,0.5c0,0.1,0,0.1,0.1,0.1c0,0,0.1,0,0.2,0c0.1,0,0.2,0,0.4-0.1l0.1,0.8
			c-0.2,0.1-0.5,0.1-0.8,0.1c-0.2,0-0.3,0-0.5-0.1s-0.2-0.1-0.3-0.2c-0.1-0.1-0.1-0.2-0.1-0.4c0-0.1,0-0.3,0-0.7v-1.6h-0.4v-0.8h0.4
			v-0.7l1-0.6v1.3H452.8z"/>
		<path style="fill:#ccc" d="M453.4,41v-1h1.9v1H453.4z"/>
		<path style="fill:#ccc" d="M457,42.3v-4.2h-1.5v-0.9h4.1v0.9H458v4.2H457z"/>
		<path style="fill:#ccc" d="M461.8,41.2l1,0.2c-0.1,0.4-0.3,0.6-0.6,0.8c-0.3,0.2-0.6,0.3-1,0.3c-0.6,0-1.1-0.2-1.4-0.6c-0.2-0.3-0.4-0.8-0.4-1.3
			c0-0.6,0.2-1.1,0.5-1.4s0.7-0.5,1.2-0.5c0.6,0,1,0.2,1.3,0.5c0.3,0.4,0.5,0.9,0.5,1.7h-2.5c0,0.3,0.1,0.5,0.2,0.7
			c0.2,0.2,0.3,0.2,0.6,0.2c0.2,0,0.3,0,0.4-0.1C461.7,41.5,461.8,41.4,461.8,41.2z M461.9,40.2c0-0.3-0.1-0.5-0.2-0.6
			c-0.1-0.1-0.3-0.2-0.5-0.2c-0.2,0-0.4,0.1-0.5,0.2c-0.1,0.2-0.2,0.4-0.2,0.6H461.9z"/>
		<path style="fill:#ccc" d="M464.6,42.3h-1v-3.7h0.9v0.5c0.2-0.2,0.3-0.4,0.4-0.5c0.1-0.1,0.3-0.1,0.4-0.1c0.2,0,0.4,0.1,0.6,0.2l-0.3,0.9
			c-0.2-0.1-0.3-0.2-0.5-0.2c-0.1,0-0.3,0-0.3,0.1c-0.1,0.1-0.2,0.2-0.2,0.4s-0.1,0.6-0.1,1.2V42.3z"/>
		<path style="fill:#ccc" d="M466.4,38.7h0.9v0.5c0.3-0.4,0.7-0.6,1.2-0.6c0.2,0,0.4,0,0.6,0.1c0.2,0.1,0.3,0.2,0.4,0.4c0.2-0.2,0.3-0.3,0.5-0.4
			c0.2-0.1,0.4-0.1,0.6-0.1c0.3,0,0.5,0.1,0.7,0.2c0.2,0.1,0.3,0.3,0.4,0.5c0.1,0.2,0.1,0.4,0.1,0.8v2.4h-1v-2.1
			c0-0.4,0-0.6-0.1-0.7c-0.1-0.1-0.2-0.2-0.4-0.2c-0.1,0-0.3,0-0.4,0.1c-0.1,0.1-0.2,0.2-0.3,0.4c-0.1,0.2-0.1,0.4-0.1,0.8v1.8h-1
			v-2c0-0.4,0-0.6-0.1-0.7c0-0.1-0.1-0.2-0.2-0.2c-0.1-0.1-0.2-0.1-0.3-0.1c-0.2,0-0.3,0-0.4,0.1c-0.1,0.1-0.2,0.2-0.3,0.4
			s-0.1,0.4-0.1,0.8v1.8h-1V38.7z"/>
	</g>
	<g id="Layer_x0020_1_00000132799399868183740280000008831804498469185920_">
		<g id="_1421344023328_00000099657716724109861920000008217902461521676440_">
			<path class="st9" d="M638.5,59.6c-1.9,7.6-9.6,12.2-17.2,10.3c-7.6-1.9-12.2-9.6-10.3-17.2c1.9-7.6,9.6-12.2,17.2-10.3
				C635.8,44.3,640.4,52,638.5,59.6L638.5,59.6L638.5,59.6z"/>
			<path class="st10" d="M631,54.1c0.3-1.9-1.2-2.9-3.1-3.6l0.6-2.6l-1.6-0.4l-0.6,2.5c-0.4-0.1-0.8-0.2-1.2-0.3l0.6-2.5l-1.6-0.4
				l-0.6,2.6c-0.3-0.1-0.7-0.2-1-0.2l0,0l-2.1-0.5l-0.4,1.7c0,0,1.2,0.3,1.1,0.3c0.6,0.2,0.7,0.6,0.7,0.9l-0.7,2.9
				c0,0,0.1,0,0.2,0.1c-0.1,0-0.1,0-0.2,0l-1,4.1c-0.1,0.2-0.3,0.5-0.7,0.4c0,0-1.1-0.3-1.1-0.3l-0.8,1.8l2,0.5
				c0.4,0.1,0.7,0.2,1.1,0.3l-0.6,2.6l1.6,0.4l0.6-2.6c0.4,0.1,0.8,0.2,1.2,0.3l-0.6,2.5l1.6,0.4l0.6-2.6c2.7,0.5,4.6,0.3,5.5-2.1
				c0.7-1.9,0-3-1.4-3.8C630.1,56.2,630.8,55.5,631,54.1L631,54.1L631,54.1z M627.5,59.1c-0.5,1.9-3.7,0.9-4.8,0.6l0.9-3.4
				C624.6,56.6,628,57.1,627.5,59.1L627.5,59.1z M628,54.1c-0.4,1.8-3.1,0.9-4,0.6l0.8-3.1C625.6,51.9,628.4,52.3,628,54.1L628,54.1
				z"/>
		</g>
	</g>
	<g>
		<path style="fill:#ccc" d="M605,36v-5.7h1.2v4.7h2.9v1H605z"/>
		<path style="fill:#ccc" d="M609.6,33.9c0-0.4,0.1-0.7,0.3-1.1s0.4-0.6,0.8-0.8c0.3-0.2,0.7-0.3,1.1-0.3c0.6,0,1.1,0.2,1.5,0.6s0.6,0.9,0.6,1.5
			c0,0.6-0.2,1.1-0.6,1.6s-0.9,0.6-1.5,0.6c-0.4,0-0.7-0.1-1.1-0.3s-0.6-0.4-0.8-0.8S609.6,34.4,609.6,33.9z M610.7,34
			c0,0.4,0.1,0.7,0.3,0.9s0.4,0.3,0.7,0.3s0.5-0.1,0.7-0.3s0.3-0.5,0.3-1c0-0.4-0.1-0.7-0.3-0.9s-0.4-0.3-0.7-0.3s-0.5,0.1-0.7,0.3
			S610.7,33.6,610.7,34z"/>
		<path style="fill:#ccc" d="M618.5,36h-1.1v-2.1c0-0.4,0-0.7-0.1-0.9s-0.1-0.2-0.2-0.3s-0.2-0.1-0.4-0.1c-0.2,0-0.4,0.1-0.5,0.2s-0.3,0.2-0.3,0.4
			s-0.1,0.5-0.1,1V36h-1.1v-4.1h1v0.6c0.4-0.5,0.8-0.7,1.4-0.7c0.2,0,0.5,0,0.7,0.1c0.2,0.1,0.4,0.2,0.5,0.3s0.2,0.3,0.2,0.5
			s0.1,0.4,0.1,0.7V36z"/>
		<path style="fill:#ccc" d="M619.5,36.3l1.3,0.2c0,0.1,0.1,0.2,0.1,0.3c0.1,0.1,0.3,0.1,0.5,0.1c0.3,0,0.5,0,0.6-0.1c0.1-0.1,0.2-0.1,0.2-0.3
			c0-0.1,0.1-0.3,0.1-0.5v-0.6c-0.3,0.4-0.7,0.7-1.2,0.7c-0.6,0-1-0.2-1.3-0.7c-0.3-0.4-0.4-0.8-0.4-1.4c0-0.7,0.2-1.2,0.5-1.6
			c0.3-0.4,0.8-0.6,1.2-0.6c0.5,0,0.9,0.2,1.3,0.7v-0.6h1v3.7c0,0.5,0,0.9-0.1,1.1s-0.2,0.4-0.3,0.6s-0.3,0.2-0.6,0.3
			s-0.6,0.1-0.9,0.1c-0.7,0-1.2-0.1-1.5-0.4s-0.4-0.5-0.4-0.9C619.5,36.4,619.5,36.4,619.5,36.3z M620.5,33.9c0,0.4,0.1,0.8,0.3,1
			s0.4,0.3,0.6,0.3c0.3,0,0.5-0.1,0.7-0.3s0.3-0.5,0.3-0.9c0-0.4-0.1-0.7-0.3-1s-0.4-0.3-0.7-0.3c-0.3,0-0.5,0.1-0.7,0.3
			S620.5,33.5,620.5,33.9z"/>
		<path style="fill:#ccc" d="M624.4,34.5v-1.1h2.2v1.1H624.4z"/>
		<path style="fill:#ccc" d="M628.5,36v-4.8h-1.7v-1h4.6v1h-1.7V36H628.5z"/>
		<path style="fill:#ccc" d="M633.9,34.7l1.1,0.2c-0.1,0.4-0.4,0.7-0.7,0.9s-0.7,0.3-1.1,0.3c-0.7,0-1.3-0.2-1.6-0.7c-0.3-0.4-0.4-0.9-0.4-1.4
			c0-0.7,0.2-1.2,0.5-1.6s0.8-0.6,1.4-0.6c0.6,0,1.1,0.2,1.5,0.6s0.5,1,0.5,1.9h-2.8c0,0.3,0.1,0.6,0.3,0.8s0.4,0.3,0.6,0.3
			c0.2,0,0.3,0,0.4-0.1S633.8,34.9,633.9,34.7z M633.9,33.6c0-0.3-0.1-0.6-0.2-0.7s-0.3-0.2-0.6-0.2c-0.2,0-0.4,0.1-0.6,0.3
			s-0.2,0.4-0.2,0.7H633.9z"/>
		<path style="fill:#ccc" d="M637,36h-1.1v-4.1h1v0.6c0.2-0.3,0.3-0.5,0.5-0.6c0.1-0.1,0.3-0.1,0.5-0.1c0.2,0,0.5,0.1,0.7,0.2l-0.3,1
			c-0.2-0.1-0.4-0.2-0.5-0.2c-0.2,0-0.3,0-0.4,0.1s-0.2,0.2-0.3,0.5s-0.1,0.7-0.1,1.4V36z"/>
		<path style="fill:#ccc" d="M638.9,31.9h1v0.6c0.4-0.4,0.8-0.7,1.3-0.7c0.3,0,0.5,0.1,0.7,0.2c0.2,0.1,0.4,0.3,0.5,0.5c0.2-0.2,0.4-0.4,0.6-0.5
			c0.2-0.1,0.4-0.2,0.7-0.2c0.3,0,0.6,0.1,0.8,0.2c0.2,0.1,0.4,0.3,0.5,0.5c0.1,0.2,0.1,0.5,0.1,0.9V36H644v-2.4
			c0-0.4,0-0.7-0.1-0.8c-0.1-0.2-0.3-0.2-0.5-0.2c-0.2,0-0.3,0-0.4,0.1s-0.2,0.2-0.3,0.4s-0.1,0.5-0.1,0.9v2h-1.1v-2.3
			c0-0.4,0-0.7-0.1-0.8s-0.1-0.2-0.2-0.3s-0.2-0.1-0.3-0.1c-0.2,0-0.3,0-0.5,0.1s-0.2,0.2-0.3,0.4S640,33.6,640,34v2h-1.1V31.9z"/>
	</g>
</g>
</svg>
