<?xml version="1.0" encoding="utf-8"?>
<!-- Generator: $$$/GeneralStr/196=Adobe Illustrator 27.6.0, SVG Export Plug-In . SVG Version: 6.00 Build 0)  -->
<svg version="1.1" id="Ebene_1" xmlns="http://www.w3.org/2000/svg" xmlns:xlink="http://www.w3.org/1999/xlink" x="0px" y="0px"
	 viewBox="0 0 703.3 736.6" style="enable-background:new 0 0 703.3 736.6;" xml:space="preserve">
<g>
	<path d="M501.5,528.6c1.8,0.6,2.8-1.7,3.9-3c10.8-12.7,18.3-27.2,22.5-43.2c7.4-28,7.1-55.5-6.9-81.6c-6-11.3-7.7-23.4-9.4-35.8
		c-0.9-6.1-0.2-12.5-2.5-18.7c-2.2,1.4-2.2,3.5-2.9,5.2c-6,15.3-13.9,29.4-25.5,41c-10.8,10.8-24.9,17.8-37.1,19.7
		c0.4-20.9,0.9-48.1-10.8-52.6c-5.5-2.1-10.5-5.3-15.6-8.2c-10.3-6-21.5-7.8-33.1-6.2c-14.6,1.7-29,4.3-43.8-0.8
		c-14.3-4.9-28.3-1.5-41.1,6.3c-4.1,2.5-8.1,5.1-12.1,7.6c-6.1,3.7-12.3,35.7-18.3,54.3c-11.6-1.4-20.9-6.1-31.9-14.4
		c-14.2-10.6-24.2-24.7-32.3-40.3c-2.2-4.2-4.3-8.4-7.7-12.3c-0.7,1.6-1.2,2.8-1.5,4c-2.5,11.2-5.5,22.3-6.9,33.7
		c-1.8,14.7-8,28.1-12.7,41.9c-5.3,15.4-7.6,30.9-1.7,46.7c0.9,2.3,1.3,5.8,4,5.8s3.3-3.5,4.3-5.7c2.4-5,4.2-10.2,7.9-15.3
		c-1.1,9.7-2.4,18.5-3.3,27.3c-1.3,14.5,0.1,28.9,4.1,42.9c5,17.4,17.6,28.8,31.4,39c0.8,0.6,1.6,1.3,2.6,0.6
		c0.9-0.7,0.5-1.7,0.3-2.7c-1.9-9.7-3.8-19.3-5.6-29c2.3,4.8,4.6,9.5,7.2,14c16.3,28.2,36.9,53,60.8,75c3.1,2.9,6.5,7.9,10.2,6.6
		c4.6-1.6,5.6-7.7,6.6-12.5c0.8-3.9,1-8,1.4-12.2c2.3,1.4,3.3,3.5,4.3,5.5c7.7,14.2,9.4,29.5,7.7,45.3c-0.2,1.9-1.4,4.4,0.1,5.5
		c2,1.3,3.6-1.2,5.2-2.3c10.6-7.6,20.4-16.1,29.3-26.6c1,7-2.6,11.9-5.4,17.3c4.8,0.6,8.5-1.1,12.1-2.9c17-8,28-21.9,35.9-38.7
		c3.2,5.2,1.6,15.3-1.6,20.8c-3.2,5.2-7,9.8-10.7,14.6c-0.6,0.7-1.5,1.4-1.1,2.5c0.7,1.4,2,0.6,3,0.3c10.8-3.3,21.3-7.5,30.8-13.9
		c14.8-10.1,24.9-24.5,33.8-39.6c0.7-1.2,1.1-2.8,2.9-3.7c-0.9,6.3-1.3,12.1-4.4,17.4c-0.5,0.9-1.6,1.9-0.6,3c1,1,2.1,0.1,3.1-0.3
		c13.2-6,23.9-14.9,31.4-27.5c9-15.1,11.6-31.8,12.2-49c0.4-10.9,0.1-21.8,0.1-32.7c0.7,0,1.2-0.1,1.9-0.1
		c3.1,7.5,4.4,15.3,4.4,23.4C500.2,525.3,499.2,527.9,501.5,528.6z M402.8,413.4c-19.1,5.9-43.4,2.8-55.6,1.4
		c-10.5,0-27.2-0.1-38.3-10.9c-0.3,0.1-0.8,0.3-1.3,0.4c4-6,7.3-10.6,9.7-11.5c3-1.1,6.2-1.4,9.3-2c18.4-3.5,23.2-5.5,41.9-3.3
		c12.3,1.5,33.4-0.4,42.7,9.6c2.2,1.3,4.4,3.7,6.6,6.7C414.8,406.7,409.2,411.4,402.8,413.4z"/>
	<path d="M167.4,186.3c5,16.6,9.2,33.7,12.2,50.9c0.9,5.1,1.4,10.1,3.2,15.4c1.2-2,0.7-3.5,0.7-5.2c0.3-11.1,2-21.8,5.4-32.3
		c4.8-14.9,12.6-28.1,19.6-41.8c5.4-10.5,10.5-21.2,7.2-33.9c-0.7-2.9,1.2-2.9,2.8-2.8c3.9,0.1,7.3-1.4,10.6-3.3l27.6,1.2
		c0.7,2.1,3.3,1.7,5.2,1.9c0.9,0.1,1.8,0,2.7,0.1c12.8,0.7,25.5-1.5,38.2-0.8c13,0.9,52.8-14.1,34.3-2.8c-0.9,0.6-2.2,1.1-1.9,2.4
		c0.3,1.5,1.7,1.6,2.9,1.9c10.1,1.9,20.3,2.2,30.5,1.1c20.4-2.2,39.4-9.5,58.4-16.9c7.3-2.9,17.1-4.7,14.6-3.2
		c-0.7,0.5-1.8,0.9-1.7,1.9c0.1,1.3,1.3,1.1,2.1,1.2c1.2,0.3,2.3,0.6,3.5,0.8c15.1,2.9,25.7,11.8,30,27.4
		c3.5,12.9,9.4,24.4,15.6,35.9c7.9,14.6,13.4,30.1,15.4,47c0.5,4.6-0.3,9.4,1.1,14.2c2.2-1.1,2-3.1,2.4-4.6
		c6.7-25.2,13.5-50.5,19.8-75.9c5.1-20.8,1.2-62.1-2.5-59.4c1.5-8.4-5.8-31.1-12.5-33.7c-4.9-1.9-9.6-3.8-14.5-5.7
		c6.7-3,13.2-5,19.8-6.7c3.4-1,3.7-2.4,1-4.6c-6-5-12.3-9.6-19.3-13.1c-18.8-9.6-38.8-11.6-59.3-10.8c-1.7,0.1-3.4,0.6-5.4-0.5
		c3.2-2.7,6.1-5.2,9.1-7.7c2.3-1.9,2.4-3.3-0.6-4.6c-22.4-8.9-45.6-14-69.5-13.7c-22.3,0.2-43.8,5.1-64,15.4
		c-3.8,1.9-4.3,0.8-3.8-3.1c0.6-4.2-1.1-6.3-5.2-5.9c-4.8,0.5-9.6,0.7-14.3,1.3c-32.3,4.8-58.4,21-78.9,47.9
		c-3.4,4.6-3.5,4.5-6.5-0.6c-1.4-2.3-2.4-4.5-5.5-2.1c-8.8,6.7-17.4,13.6-23.9,23c-7.6,11-11.1,23.1-10.3,36.7
		c0.1,2.1,0.5,5.3-3.2,3.4c-3.8-1.9-4.6,0.3-5.4,3.4c-4.4,16.7-2,32.4,5.9,47.4C163.6,177.4,165.9,181.7,167.4,186.3z"/>
	<path d="M275.9,257.9c3.2,3.3,7.3,3.6,11.3,3.9c8.4,0.7,16.6-1,24.4-4c4.1-1.6,7.9-1.6,11.3,1.9c2.2,2.2,3.3,1.4,3.7-1.4
		c1.5-10.8,2.6-21.8,2-32.8c-0.6-9.5-5.2-13.2-14.8-11.8c-2.9,0.4-5.8,0.9-8.7,0c-16.3-5-32.9-4.1-49.5-2.7
		c-9.1,0.8-18.1,6.2-26.4,10.2c-10.8,5.1-21.1,10.2-22.6,24.2c-0.4,3.5,0.7,4.1,3.7,3.3c5.1-1.7,10.2-3.4,15.4-4.8
		c12.7-3.7,25.4-10.1,38.2-13.9c-6.1,5-12.2,9.6-17.2,15.5c-1.8,2.2-2.6,4.2,1.3,4.5c15.2,1.3,30.3,4.7,45.8,2.3
		c3.7-0.6,7.6-0.5,12.7-0.9C296.2,257.4,286.3,258.2,275.9,257.9z"/>
	<path d="M466.8,232.6c4.7,1.5,9.5,2.6,14.3,3.9c2.9,0.8,3.8-0.3,3.7-3.3c-0.2-7.3-4.3-11.5-10.5-14.1c-13.8-5.8-28.4-11.4-43.2-13
		c-12.7-1.4-24.4,2.8-36.1,6.9c-8.2,3-16.3,7.3-25.8,5.2c-3.6-0.8-4.9,2.3-3.9,5.6c3.7,11.8,4.6,23.9,5,36.1
		c0.1,2.7,0.1,6.7,2.7,6.7c2.8,0,1.4-4.1,1.8-6.3c0.3-1.8-0.1-4.3,1.4-5.1c1.8-1,3.1,1.4,4.5,2.4c3.4,2.3,6,5.8,10.2,7.1
		c0.5-2.8-2-4-1.4-6.5c4.4,0.9,8.6,1.8,12.9,2.7c4.4,0.9,8.8,1.1,13.3,0.8c4.3-0.2,8.5-0.5,12.2-3.7c-4.6-0.8-9.2-1.7-15.2-2.8
		c4.7-0.9,7.8-1.3,11-2.1c10.8-2.9,21.6-6.1,33.2-5.1c0.8,0.1,1.8,0.2,2.2-0.7c0.6-1.3-0.5-2.2-1.2-3c-4.8-5.8-11.1-9.3-18-11.8
		c-4.1-1.5-8.2-3-13.3-4.8c1.5-0.5,2.1-0.7,2.7-0.8C442,225.2,454.5,228.7,466.8,232.6z"/>
	<path d="M691.8,386.9c-0.1-3.1-0.2-6.3-0.3-9.7c-0.1-5.6-0.2-11.4-0.7-17.3c-2.7-32-9.8-63.2-20.9-92.7
		c-15.8-42-40.2-80.6-72.3-114.8c-4.9-5.1-9.9-10.5-15.7-15c-0.1-0.1-0.2-0.2-0.4-0.3c-4.9-4.2-8.7-1.3-10.1,0.2
		c-4.6,4.9-4.3,14.8,0.7,19.6c9.3,8.9,17.9,18.1,25.6,27.5c19.9,24.1,35.9,50.6,47.7,78.6c14,33.1,22.1,67.3,24.2,101.4
		c2,32.5,0.1,61.9-5.8,89.8c-4.6,21.4-11.2,42.1-19.5,61.4l-0.1,0.2c-0.1,0.2-0.2,0.4-0.3,0.6c-0.4,0.9-1.1,2.2-1.3,3.8
		c-14.8,33.4-34.8,63.8-59.5,90.4c-34,36.4-76.1,64-125.1,82.1c-33.4,12.3-69.4,18.7-106.8,19c-3.3,0-6.1,0-8.2,1
		c-1.5-0.3-3.2-0.3-5-0.4c-37.4-1.7-73-9.5-106-23.2c-48.4-20.1-89.3-49.4-121.7-87c-18.8-21.7-34.6-45.9-47-72.1
		c-0.2-2.1-1.1-4.2-2.6-7.2c-15.7-33.8-25.2-69-28.4-104.7c-4.5-52.2,2.5-102,20.9-148.1c14.6-36.7,35.8-70.3,62.9-99.7l0.1-0.1
		c0.2-0.2,0.4-0.4,0.6-0.6c1.5-1.5,4.4-4.3,3.6-9.9l-0.1-0.5c0-0.1-0.1-0.3-0.1-0.6c-0.2-0.7-0.4-1.8-0.7-2.9l-0.1-0.4
		c0-0.1-0.1-0.5-0.2-0.8c-0.3-1.6-1.1-5.9-5.7-7.1c-4.5-1.1-7.3,2.4-8.3,3.7c-0.2,0.2-0.3,0.4-0.4,0.5c-10.6,11.1-20.3,22.6-29,34.4
		c-30.4,41.7-50.6,88.1-60,137.7c-6.2,32.5-7.7,65.2-4.6,97.3c2.6,26.3,8.1,51.8,16.3,76c0.1,1.6,0.7,3,1.1,4
		c0.1,0.2,0.2,0.4,0.3,0.7c5.2,15.2,10.8,28.8,17.2,41.6c22.9,46.2,54.7,85.5,94.5,116.9c26.3,20.7,54.6,37.1,84.2,48.9
		c26,10.4,53,17.6,80.2,21.3c12.9,1.8,25.7,2.6,37.5,3.1c0.3,0,0.6,0,1.1,0c1.1,0,2.8-0.1,4.3-0.9c13.8-0.1,25.1-0.7,35.5-1.6
		c27.6-2.7,54.8-8.8,81-18.2c30.2-10.7,59.2-26.1,86-45.6c40.9-29.6,74.2-67.7,98.9-113.1c6.8-12.6,13.2-26.3,18.8-40.8
		c0.1-0.2,0.2-0.4,0.3-0.6c0.5-1,1.3-2.6,1.3-4.5c15-39.4,22.2-79,22-121L691.8,386.9z"/>
</g>
</svg>
