<svg id="Layer_1" data-name="Layer 1" xmlns="http://www.w3.org/2000/svg" viewBox="0 0 1321.5 313.5"><defs><style>.cls-1{fill:#fff;}.cls-2{fill:#7ac943;}</style></defs><path class="cls-1" d="M143.1,31.1V313.4h63.8V245L191.1,118.8,206.9,82V31.1Zm130.3,91-34.9,63.2,90.2,128.1h76.2Z"/><polygon class="cls-2" points="382.1 0 290.2 29 310.5 47.1 206.8 163.3 206.8 82 0 313.5 72.9 313.5 162.7 213.2 162.7 294.6 351 83.2 371.7 101.5 382.1 0"/><path class="cls-1" d="M455.3,228.8V90.8h28.2v57.3h26.2a27,27,0,0,0,12.2-2.6,20.8,20.8,0,0,0,8.8-7.8,22,22,0,0,0,3.3-12.2V90.8h28.2v34.7a45.5,45.5,0,0,1-6.5,24.3,48.3,48.3,0,0,1-17.2,16.7l16.6,34.9a3.7,3.7,0,0,0,1.9,2,6.4,6.4,0,0,0,2.8.6h13.4v24.8H555.5c-6.6,0-12-1.3-16.2-4a27.2,27.2,0,0,1-9.7-11L510.1,173H483.5v55.8Z"/><path class="cls-1" d="M636.3,231.2a55.7,55.7,0,0,1-27.8-7,52.5,52.5,0,0,1-19.3-19,51.3,51.3,0,0,1-7.1-26.7,51.6,51.6,0,0,1,26.4-45.6,54.7,54.7,0,0,1,27.8-7c10.4,0,19.7,2.3,27.8,7a52.9,52.9,0,0,1,19.4,72.3,52.8,52.8,0,0,1-19.4,19A55.4,55.4,0,0,1,636.3,231.2Zm0-23.1a25.5,25.5,0,0,0,14.3-3.9,26.9,26.9,0,0,0,9.3-10.7,35.7,35.7,0,0,0,0-30,26.6,26.6,0,0,0-9.3-10.6,26,26,0,0,0-37.8,10.6,35.7,35.7,0,0,0,0,30,24.7,24.7,0,0,0,23.5,14.6Z"/><path class="cls-1" d="M723.9,116.2A16.8,16.8,0,0,1,712,87.3a16.9,16.9,0,1,1,23.8,23.9A16.3,16.3,0,0,1,723.9,116.2ZM710.3,228.8V128.2h27.2V228.8Z"/><path class="cls-1" d="M763,228.8V171a45.1,45.1,0,0,1,5.8-22.7A43.2,43.2,0,0,1,785.6,132c7.4-4.1,16.2-6.1,26.5-6.1s19.2,2,26.5,6.1a43.2,43.2,0,0,1,16.8,16.3,46.2,46.2,0,0,1,5.8,22.7v57.8h-27V171a21.2,21.2,0,0,0-3-11.1,21.9,21.9,0,0,0-8-8,21.2,21.2,0,0,0-11.1-3,21.6,21.6,0,0,0-11.2,3,22.7,22.7,0,0,0-8,8A22.1,22.1,0,0,0,790,171v57.8Z"/><path class="cls-1" d="M885.4,228.8V131a37.9,37.9,0,0,1,5.5-20.3,39.8,39.8,0,0,1,14.6-14.5,38.9,38.9,0,0,1,20.2-5.4h49.9v24.8H928.8a14.4,14.4,0,0,0-10.7,4.5,15.1,15.1,0,0,0-4.5,10.9v22.3h55.3v24.8H913.6v50.7Z"/><path class="cls-1" d="M1039.7,231.2a55.4,55.4,0,0,1-27.8-7,52.8,52.8,0,0,1-19.4-19,51.3,51.3,0,0,1-7.1-26.7,51.4,51.4,0,0,1,26.5-45.6c8.1-4.7,17.4-7,27.8-7a54.7,54.7,0,0,1,27.8,7,53,53,0,0,1,19.3,72.3,52.5,52.5,0,0,1-19.3,19A55.7,55.7,0,0,1,1039.7,231.2Zm0-23.1a24.7,24.7,0,0,0,23.5-14.6,35.7,35.7,0,0,0,0-30,26.6,26.6,0,0,0-37.8-10.6,26.6,26.6,0,0,0-9.3,10.6,35.7,35.7,0,0,0,0,30,26.9,26.9,0,0,0,9.3,10.7A25.5,25.5,0,0,0,1039.7,208.1Z"/><path class="cls-1" d="M1113.6,228.8V84.8h27v144Z"/><path class="cls-1" d="M1179.9,116.2A16.8,16.8,0,0,1,1168,87.3a16.9,16.9,0,1,1,23.8,23.9A16.3,16.3,0,0,1,1179.9,116.2Zm-13.6,112.6V128.2h27.2V228.8Z"/><path class="cls-1" d="M1267.3,231.2a55.4,55.4,0,0,1-27.8-7,52.8,52.8,0,0,1-19.4-19,51.3,51.3,0,0,1-7.1-26.7,51.4,51.4,0,0,1,26.5-45.6c8.1-4.7,17.4-7,27.8-7a54.7,54.7,0,0,1,27.8,7,53,53,0,0,1,19.3,72.3,52.5,52.5,0,0,1-19.3,19A55.7,55.7,0,0,1,1267.3,231.2Zm0-23.1a24.7,24.7,0,0,0,23.5-14.6,35.7,35.7,0,0,0,0-30,26.6,26.6,0,0,0-37.8-10.6,26.6,26.6,0,0,0-9.3,10.6,35.7,35.7,0,0,0,0,30,26.9,26.9,0,0,0,9.3,10.7A25.5,25.5,0,0,0,1267.3,208.1Z"/></svg>